<svg viewBox="0 0 20 20" fill="none" xmlns="http://www.w3.org/2000/svg">
<g clip-path="url(#clip0_52667_8481)">
<path d="M3.81672 14.8612L3.12644 15.5514C2.94537 15.7336 2.84373 15.98 2.84373 16.2369C2.84373 16.4937 2.94537 16.7401 3.12644 16.9223C3.3086 17.1034 3.55501 17.205 3.81186 17.205C4.06871 17.205 4.31512 17.1034 4.49728 16.9223L5.18755 16.232C5.34683 16.046 5.43006 15.8068 5.42061 15.5621C5.41116 15.3174 5.30972 15.0853 5.13657 14.9121C4.96343 14.739 4.73132 14.6376 4.48663 14.6281C4.24195 14.6187 4.00271 14.7019 3.81672 14.8612ZM3.1945 10.0001C3.1945 9.7422 3.09207 9.49492 2.90974 9.31259C2.72741 9.13026 2.48013 9.02783 2.22228 9.02783H1.25005C0.992205 9.02783 0.744916 9.13026 0.562589 9.31259C0.380262 9.49492 0.277832 9.7422 0.277832 10.0001C0.277832 10.2579 0.380262 10.5052 0.562589 10.6875C0.744916 10.8698 0.992205 10.9723 1.25005 10.9723H2.22228C2.48013 10.9723 2.72741 10.8698 2.90974 10.6875C3.09207 10.5052 3.1945 10.2579 3.1945 10.0001ZM10.0001 3.1945C10.2579 3.1945 10.5052 3.09207 10.6875 2.90974C10.8698 2.72741 10.9723 2.48013 10.9723 2.22228V1.25005C10.9723 0.992205 10.8698 0.744916 10.6875 0.562589C10.5052 0.380262 10.2579 0.277832 10.0001 0.277832C9.7422 0.277832 9.49492 0.380262 9.31259 0.562589C9.13026 0.744916 9.02783 0.992205 9.02783 1.25005V2.22228C9.02783 2.48013 9.13026 2.72741 9.31259 2.90974C9.49492 3.09207 9.7422 3.1945 10.0001 3.1945ZM3.81672 5.18755C3.99781 5.36717 4.24222 5.46842 4.49728 5.4695C4.62523 5.47024 4.75207 5.44571 4.87052 5.39733C4.98897 5.34895 5.09671 5.27766 5.18755 5.18755C5.36863 5.0054 5.47027 4.75898 5.47027 4.50214C5.47027 4.24529 5.36863 3.99888 5.18755 3.81672L4.49728 3.12644C4.31129 2.96717 4.07205 2.88394 3.82736 2.89339C3.58268 2.90284 3.35057 3.00428 3.17742 3.17742C3.00428 3.35057 2.90284 3.58268 2.89339 3.82736C2.88394 4.07205 2.96717 4.31129 3.12644 4.49728L3.81672 5.18755ZM15.4834 5.4695C15.7384 5.46842 15.9829 5.36717 16.1639 5.18755L16.8542 4.49728C16.956 4.41012 17.0387 4.30287 17.097 4.18225C17.1554 4.06163 17.1882 3.93025 17.1933 3.79636C17.1985 3.66246 17.1759 3.52895 17.1271 3.40418C17.0782 3.27942 17.004 3.16611 16.9093 3.07137C16.8145 2.97662 16.7012 2.90248 16.5765 2.8536C16.4517 2.80472 16.3182 2.78216 16.1843 2.78733C16.0504 2.79251 15.919 2.8253 15.7984 2.88365C15.6778 2.94201 15.5705 3.02467 15.4834 3.12644L14.8612 3.81672C14.6801 3.99888 14.5785 4.24529 14.5785 4.50214C14.5785 4.75898 14.6801 5.0054 14.8612 5.18755C15.0326 5.35805 15.2613 5.45856 15.5028 5.4695H15.4834ZM18.7501 9.02783H17.7778C17.52 9.02783 17.2727 9.13026 17.0904 9.31259C16.908 9.49492 16.8056 9.7422 16.8056 10.0001C16.8056 10.2579 16.908 10.5052 17.0904 10.6875C17.2727 10.8698 17.52 10.9723 17.7778 10.9723H18.7501C19.0079 10.9723 19.2552 10.8698 19.4375 10.6875C19.6198 10.5052 19.7223 10.2579 19.7223 10.0001C19.7223 9.7422 19.6198 9.49492 19.4375 9.31259C19.2552 9.13026 19.0079 9.02783 18.7501 9.02783ZM10.0001 16.8056C9.7422 16.8056 9.49492 16.908 9.31259 17.0904C9.13026 17.2727 9.02783 17.52 9.02783 17.7778V18.7501C9.02783 19.0079 9.13026 19.2552 9.31259 19.4375C9.49492 19.6198 9.7422 19.7223 10.0001 19.7223C10.2579 19.7223 10.5052 19.6198 10.6875 19.4375C10.8698 19.2552 10.9723 19.0079 10.9723 18.7501V17.7778C10.9723 17.52 10.8698 17.2727 10.6875 17.0904C10.5052 16.908 10.2579 16.8056 10.0001 16.8056ZM16.1834 14.8612C15.9987 14.7584 15.7855 14.7187 15.5762 14.7479C15.3669 14.7772 15.1728 14.8739 15.0233 15.0233C14.8739 15.1728 14.7772 15.3669 14.7479 15.5762C14.7187 15.7855 14.7584 15.9987 14.8612 16.1834L15.5514 16.8737C15.7336 17.0547 15.98 17.1564 16.2369 17.1564C16.4937 17.1564 16.7401 17.0547 16.9223 16.8737C17.1034 16.6915 17.205 16.4451 17.205 16.1882C17.205 15.9314 17.1034 15.685 16.9223 15.5028L16.1834 14.8612ZM10.0001 4.65283C8.94247 4.65283 7.90864 4.96644 7.0293 5.554C6.14995 6.14156 5.46458 6.97668 5.05986 7.95376C4.65515 8.93084 4.54925 10.006 4.75558 11.0432C4.9619 12.0805 5.47117 13.0333 6.219 13.7811C6.96682 14.5289 7.9196 15.0382 8.95686 15.2445C9.99412 15.4509 11.0693 15.345 12.0463 14.9402C13.0234 14.5355 13.8585 13.8502 14.4461 12.9708C15.0337 12.0915 15.3473 11.0576 15.3473 10.0001C15.3447 8.58267 14.7805 7.22408 13.7783 6.22184C12.776 5.21959 11.4174 4.6554 10.0001 4.65283ZM10.0001 13.4028C9.32705 13.4028 8.66916 13.2033 8.10957 12.8294C7.54999 12.4555 7.11385 11.924 6.8563 11.3022C6.59875 10.6805 6.53136 9.99628 6.66266 9.3362C6.79396 8.67613 7.11804 8.06981 7.59393 7.59393C8.06981 7.11804 8.67613 6.79396 9.3362 6.66266C9.99628 6.53136 10.6805 6.59875 11.3022 6.8563C11.924 7.11385 12.4555 7.54999 12.8294 8.10957C13.2033 8.66916 13.4028 9.32705 13.4028 10.0001C13.4028 10.9025 13.0443 11.768 12.4062 12.4062C11.768 13.0443 10.9025 13.4028 10.0001 13.4028Z" fill="white"/>
</g>
<defs>
<clipPath id="clip0_52667_8481">
<rect width="20" height="20" fill="white"/>
</clipPath>
</defs>
</svg>
