<svg width="65" height="19" viewBox="0 0 65 19" fill="none" xmlns="http://www.w3.org/2000/svg">
<path d="M27.9587 8.31469C26.7287 8.02634 25.6406 7.73798 25.6406 6.87292C25.6406 5.67144 27.0598 5.57532 27.6748 5.57532C28.3371 5.52726 28.9994 5.67144 29.6144 6.00785L31.3175 4.71026C30.2294 4.03743 28.9521 3.65295 27.6748 3.65295C24.458 3.65295 23.3226 5.38308 23.3226 7.0171C23.3226 9.372 25.3095 9.85259 27.1072 10.2851C28.3371 10.5735 29.4252 10.8618 29.4252 11.775C29.4252 12.2555 29.1414 13.0245 27.3437 13.0245C26.1137 13.0245 24.931 12.592 23.8903 11.9191L23.1807 13.6493C24.1268 14.4182 25.7826 14.8988 27.391 14.8988C30.0402 14.8988 31.7906 13.5531 31.7906 11.5347C31.7433 9.22782 29.7564 8.69917 27.9587 8.31469ZM41.6304 8.98752L41.5358 8.93946L41.6304 8.8914C42.482 8.41081 43.0497 7.49769 43.0024 6.48845C43.0024 4.71026 41.5358 3.65295 39.0759 3.65295H33.9667V14.6104H39.3597C42.0562 14.6104 43.5227 13.5531 43.5227 11.6308C43.5227 10.3812 42.8131 9.42005 41.6304 8.98752ZM36.2847 5.52726H38.7447C40.3058 5.52726 40.637 6.24815 40.637 6.87292C40.637 7.73798 39.9747 8.21858 38.7447 8.21858H36.2847V5.52726ZM36.2847 8.17052H38.7447H36.2847ZM39.1705 12.8323H36.2847V10.0448H39.1705C40.4951 10.0448 41.1574 10.5254 41.1574 11.4385C41.1574 12.3517 40.5424 12.8323 39.1705 12.8323ZM51.2811 5.52726L53.6938 3.70101H45.6042V14.6585H53.6938V12.8323H47.9223V10.0448H52.8422V8.21858H47.9223V5.52726H51.2811ZM65.0002 14.6585L62.6348 11.1021C64.0067 10.4774 64.8109 9.27588 64.8109 7.64187C64.8109 5.23891 63.0606 3.70101 60.2695 3.70101H55.8699V14.6585H58.1879V11.5347H60.4587L62.4929 14.6585C62.5402 14.6585 65.0002 14.6585 65.0002 14.6585ZM58.1879 5.52726H60.2222C61.6887 5.52726 62.5402 6.29621 62.5402 7.64187C62.5402 8.98752 61.736 9.75647 60.2695 9.75647H58.1879V5.52726Z" fill="black"/>
<path fill-rule="evenodd" clip-rule="evenodd" d="M9.03545 8.89136L5.58203 6.68063V9.32389L9.03545 11.5346L17.2669 5.33498C16.9831 4.66215 16.6046 4.08544 16.1788 3.50873L9.03545 8.89136Z" fill="black"/>
<path fill-rule="evenodd" clip-rule="evenodd" d="M18.024 9.17972C18.024 8.60301 17.9767 8.07436 17.8821 7.54571L15.9425 8.98748C15.9425 9.03554 15.9425 9.13166 15.9425 9.17972C15.9425 13.0725 12.8202 16.2444 8.98836 16.2444C5.20378 16.2444 2.08151 13.0725 2.08151 9.17972C2.08151 5.28692 5.20378 2.11502 9.03566 2.11502C10.5022 2.11502 11.8268 2.54755 12.9622 3.36456L14.6652 2.0189C13.1041 0.721303 11.1645 0.000414917 8.98836 0.000414917C4.02111 -0.0476443 0 4.08544 0 9.17972C0 14.274 4.02111 18.4071 9.03566 18.4071C14.0502 18.4071 18.024 14.274 18.024 9.17972Z" fill="black"/>
</svg>
